:SAMPLES-PER-SECOND 30
:FULLY-SPECIFIED
:DEGREES
47
root  22.27022216 37.64733442 -49.63577751 -4.088409901 -1.763739944 1.863139987
lowerback  6.142839909 -0.700560987 -1.173519969
upperback  3.490230083 -0.9906579852 0.7805460095
thorax  0.1830590069 -0.5199440122 1.517650008
lowerneck  -12.45189953 3.59149003 -1.10382998
upperneck  -2.719290018 4.941830158 -2.255300045
head  1.265339971 2.417710066 -0.2856329978
lclavicle  0 -1.620099928e-014 -1.431250036e-014
lhumerus  -25.38979912 0.4261330068 90.16870117
lradius  -2.477515802e-031 -2.516100056e-031 45.44269943
lwrist  -5.649800062e-030 -1.235893763e-030 26.89819908
lhand  -1.522208093e-030 -21.89089966 22.84740067
lfingers  90 7.125020027 -90
lthumb  90.61603193 7.755020578 85.4441456
rclavicle  0 -1.620099928e-014 -1.431250036e-014
rhumerus  -33.0196991 -1.876799941 -85.16519928
rradius  3.242104754e-031 1.399142881e-031 23.34280014
rwrist  0 -5.649800062e-030 -8.459420204
rhand  1.570731925e-030 -25.9428997 18.57430077
rfingers  -90 -7.125020027 -90
rthumb  -89.60083768 -33.59330664 -89.2785978
rfemur  -23.65990067 8.147330284 18.79229927
rtibia  -0 0 65.04949951
rfoot  -0 -9.658100128 -16.46080017
rtoes  -1.575397198 19.94038992 -85.38945295
lfemur  -3.44107008 -4.053460121 -30.65699959
ltibia  -0 0 28.87989998
lfoot  -0 -19.18289948 9.011610031
ltoes  -3.695914299 -19.66929668 -100.8636129
48
root  22.23644407 37.62866643 -49.29244575 -3.97529006 -1.386440039 1.874289989
lowerback  6.012949944 -0.7928349972 -1.369850039
upperback  3.53234005 -1.121760011 0.8099420071
thorax  0.3078530133 -0.5898920298 1.662860036
lowerneck  -12.73050022 3.580940008 -0.9220669866
upperneck  -2.48920989 4.914050102 -2.324409962
head  1.39636004 2.395859957 -0.3307859898
lclavicle  0 -1.620099928e-014 -1.431250036e-014
lhumerus  -24.86179924 -0.4350660145 90.27909851
lradius  -2.422723894e-031 -2.568901121e-031 46.67739868
lwrist  0 -1.412450015e-030 27.25200081
lhand  -1.522208093e-030 -21.89089966 22.84740067
lfingers  90 7.125020027 -90
lthumb  90.61603193 7.755020578 85.4441456
rclavicle  0 -1.620099928e-014 -1.431250036e-014
rhumerus  -34.09209824 -1.604799986 -85.26000214
rradius  3.226922727e-031 1.43381092e-031 23.95689964
rwrist  0 -2.118675023e-030 -9.207429886
rhand  1.570731925e-030 -25.9428997 18.57430077
rfingers  -90 -7.125020027 -90
rthumb  -89.60083768 -33.59330664 -89.2785978
rfemur  -24.38380051 8.611530304 18.5182991
rtibia  -0 0 63.26139832
rfoot  -0 -10.5078001 -15.91489983
rtoes  -1.575397198 19.94038992 -85.38945295
lfemur  -2.764219999 -4.13710022 -30.66909981
ltibia  -0 0 28.47489929
lfoot  -0 -19.37809944 8.606320381
ltoes  -3.695914299 -19.66929668 -100.8636129
49
root  22.21677735 37.64777897 -48.95777665 -3.797329903 -1.00188005 2.240099907
lowerback  5.931970119 -0.85224998 -1.902529955
upperback  3.542979956 -1.22566998 0.7818030119
thorax  0.3795939982 -0.650274992 1.936949968
lowerneck  -12.88269997 3.547039986 -1.052369952
upperneck  -2.563139915 4.884940147 -2.167200089
head  1.390089989 2.386140108 -0.2591409981
lclavicle  0 -1.620099928e-014 -1.431250036e-014
lhumerus  -24.44619942 -1.401600003 90.43560028
lradius  -2.369618239e-031 -2.617967425e-031 47.8506012
lwrist  -2.824900031e-030 -3.089734409e-030 27.66259956
lhand  -1.522208093e-030 -21.89089966 22.84740067
lfingers  90 7.125020027 -90
lthumb  90.61603193 7.755020578 85.4441456
rclavicle  0 -1.620099928e-014 -1.431250036e-014
rhumerus  -34.77999878 -1.649700046 -85.17910004
rradius  3.228359996e-031 1.430571834e-031 23.89940071
rwrist  2.824900031e-030 -4.943575054e-030 -9.592189789
rhand  1.570731925e-030 -25.9428997 18.57430077
rfingers  -90 -7.125020027 -90
rthumb  -89.60083768 -33.59330664 -89.2785978
rfemur  -25.22330093 8.991459846 17.75589943
rtibia  -0 0 61.31190109
rfoot  -0 -11.15750027 -15.09549999
rtoes  -1.575397198 19.94038992 -85.38945295
lfemur  -2.110630035 -4.277939796 -31.10040092
ltibia  -0 0 27.95610046
lfoot  -0 -19.56459999 8.408909798
ltoes  -3.695914299 -19.66929668 -100.8636129
50
root  22.19459954 37.67888828 -48.60844349 -3.754489899 -0.6604220271 2.341419935
lowerback  6.083630085 -0.9228540063 -2.143490076
upperback  3.424580097 -1.33446002 0.8245130181
thorax  0.1859229952 -0.7049869895 2.126539946
lowerneck  -12.65289974 3.478169918 -1.238790035
upperneck  -2.740639925 4.808400154 -1.966060042
head  1.280769944 2.358200073 -0.1756010056
lclavicle  0 -1.620099928e-014 -1.431250036e-014
lhumerus  -24.54980087 -2.205909967 90.58380127
lradius  -2.300341294e-031 -2.679043481e-031 49.3492012
lwrist  0 -8.827812596e-031 27.82649994
lhand  -1.522208093e-030 -21.89089966 22.84740067
lfingers  90 7.125020027 -90
lthumb  90.61603193 7.755020578 85.4441456
rclavicle  0 -1.620099928e-014 -1.431250036e-014
rhumerus  -35.62950134 -1.940089941 -84.94360352
rradius  3.23547052e-031 1.414416683e-031 23.61300087
rwrist  0 -3.531125038e-030 -9.588219643
rhand  1.570731925e-030 -25.9428997 18.57430077
rfingers  -90 -7.125020027 -90
rthumb  -89.60083768 -33.59330664 -89.2785978
rfemur  -25.85110092 9.447259903 17.33959961
rtibia  -0 0 59.20610046
rfoot  -0 -11.66240025 -14.40400028
rtoes  -1.575397198 19.94038992 -85.38945295
lfemur  -1.18798995 -4.44423008 -31.23380089
ltibia  -0 0 27.25559998
lfoot  -0 -19.58620071 8.414910316
ltoes  -3.695914299 -19.66929668 -100.8636129
51
root  22.17115567 37.68666786 -48.25799897 -3.693419933 -0.210424006 2.174309969
lowerback  6.178090096 -1.049080014 -2.107929945
upperback  3.253859997 -1.501970053 0.9610649943
thorax  -0.03062039986 -0.7848460078 2.261029959
lowerneck  -12.06449986 3.439169884 -1.172530055
upperneck  -2.936690092 4.736020088 -2.108459949
head  1.120730042 2.324820042 -0.2481620014
lclavicle  0 -1.620099928e-014 -1.431250036e-014
lhumerus  -24.72360039 -2.824239969 90.81950378
lradius  -2.231382804e-031 -2.736745297e-031 50.80820084
lwrist  -5.649800062e-030 -7.945031336e-031 27.78350067
lhand  -1.522208093e-030 -21.89089966 22.84740067
lfingers  90 7.125020027 -90
lthumb  90.61603193 7.755020578 85.4441456
rclavicle  0 -1.620099928e-014 -1.431250036e-014
rhumerus  -36.75189972 -2.039750099 -84.71420288
rradius  3.23537427e-031 1.414636834e-031 23.61689949
rwrist  0 -4.943575054e-030 -9.768070221
rhand  1.570731925e-030 -25.9428997 18.57430077
rfingers  -90 -7.125020027 -90
rthumb  -89.60083768 -33.59330664 -89.2785978
rfemur  -26.30550003 9.843020439 17.22870064
rtibia  -0 0 56.95330048
rfoot  -0 -12.11279964 -14.17000008
rtoes  -1.575397198 19.94038992 -85.38945295
lfemur  -0.2222950011 -4.542089939 -31.03450012
ltibia  -0 0 26.42449951
lfoot  -0 -19.3614006 8.188139915
ltoes  -3.695914299 -19.66929668 -100.8636129
52
root  22.15157757 37.69088805 -47.92022104 -3.391930103 0.2469100058 2.406130075
lowerback  5.949279785 -1.183200002 -2.460959911
upperback  3.206229925 -1.694020033 0.9858289957
thorax  0.06985650212 -0.8862429857 2.490560055
lowerneck  -12.15040016 3.44975996 -1.222159982
upperneck  -2.846080065 4.761000156 -2.161930084
head  1.165310025 2.334709883 -0.2526740134
lclavicle  0 -1.620099928e-014 -1.431250036e-014
lhumerus  -24.32649994 -3.359430075 90.96959686
lradius  -2.182354873e-031 -2.775999144e-031 51.82730103
lwrist  0 6.179468817e-031 27.68899918
lhand  -1.522208093e-030 -21.89089966 22.84740067
lfingers  90 7.125020027 -90
lthumb  90.61603193 7.755020578 85.4441456
rclavicle  0 -1.620099928e-014 -1.431250036e-014
rhumerus  -37.37060165 -2.476690054 -84.3431015
rradius  3.241178564e-031 1.401287106e-031 23.38069916
rwrist  2.824900031e-030 -7.062250077e-031 -9.314889908
rhand  1.570731925e-030 -25.9428997 18.57430077
rfingers  -90 -7.125020027 -90
rthumb  -89.60083768 -33.59330664 -89.2785978
rfemur  -27.00779915 10.20950031 16.5746994
rtibia  -0 0 54.55920029
rfoot  -0 -12.32079983 -14.0855999
rtoes  -1.575397198 19.94038992 -85.38945295
lfemur  0.3981980085 -4.589049816 -31.25029945
ltibia  -0 0 25.62420082
lfoot  -0 -19.08819962 7.947219849
ltoes  -3.695914299 -19.66929668 -100.8636129
53
root  22.13055618 37.68466739 -47.56933197 -3.122819901 0.5559520125 2.930809975
lowerback  5.602389812 -1.245409966 -3.027509928
upperback  3.296880007 -1.79516995 0.8310269713
thorax  0.3762409985 -0.9489799738 2.643480062
lowerneck  -12.67020035 3.453799963 -1.229230046
upperneck  -2.636409998 4.780340195 -2.106139898
head  1.322139978 2.339339972 -0.2206619978
lclavicle  0 -1.620099928e-014 -1.431250036e-014
lhumerus  -23.82640076 -3.928159952 90.90180206
lradius  -2.128419637e-031 -2.817565241e-031 52.93220139
lwrist  -5.649800062e-030 -5.649800062e-030 27.58189964
lhand  -1.522208093e-030 -21.89089966 22.84740067
lfingers  90 7.125020027 -90
lthumb  90.61603193 7.755020578 85.4441456
rclavicle  0 -1.620099928e-014 -1.431250036e-014
rhumerus  -37.73809814 -3.286299944 -84.00450134
rradius  3.250887138e-031 1.378614105e-031 22.98049927
rwrist  0 4.943575054e-030 -8.424150467
rhand  1.570731925e-030 -25.9428997 18.57430077
rfingers  -90 -7.125020027 -90
rthumb  -89.60083768 -33.59330664 -89.2785978
rfemur  -27.65819931 10.67759991 15.58819962
rtibia  -0 0 52.00770187
rfoot  -0 -12.36209965 -13.90890026
rtoes  -1.575397198 19.94038992 -85.38945295
lfemur  1.062229991 -4.497990131 -31.7730999
ltibia  -0 0 24.7798996
lfoot  -0 -18.90089989 7.769839764
ltoes  -3.695914299 -19.66929668 -100.8636129
